<svg version="1.1" xmlns="http://www.w3.org/2000/svg" xmlns:xlink="http://www.w3.org/1999/xlink" width="368.32067" height="167.13664" viewBox="0,0,368.32067,167.13664"><g transform="translate(-55.83967,-96.43168)"><g data-paper-data="{&quot;isPaintingLayer&quot;:true}" fill-rule="nonzero" stroke-linecap="butt" stroke-linejoin="miter" stroke-miterlimit="10" stroke-dasharray="" stroke-dashoffset="0" style="mix-blend-mode: normal"><path d="M415.11292,97.68168c4.30833,0 7.79743,3.05594 7.79743,6.82943c0,31.55888 0,119.4189 0,150.97778c0,3.77348 -3.48909,6.82943 -7.79743,6.82943c-71.60318,0 -278.62263,0 -350.22581,0c-4.30833,0 -7.79743,-3.05594 -7.79743,-6.82943c0,-31.55888 0,-119.4189 0,-150.97778c0,-3.77348 3.48909,-6.82943 7.79743,-6.82943c71.60318,0 278.62263,0 350.22581,0z" fill="#ffffff" stroke="#0fbd8c" stroke-width="2.5"/><text transform="translate(156.63701,146.23493) scale(0.75365,0.75365)" font-size="40" xml:space="preserve" fill="#0fbd8c" fill-rule="nonzero" stroke="none" stroke-width="1" stroke-linecap="butt" stroke-linejoin="miter" stroke-miterlimit="10" stroke-dasharray="" stroke-dashoffset="0" font-family="Sans Serif" font-weight="normal" text-anchor="start" style="mix-blend-mode: normal"><tspan x="0" dy="0">Hello there!</tspan></text><text transform="translate(94.26987,177.14268) scale(0.52904,0.52904)" font-size="40" xml:space="preserve" fill="#0fbd8c" fill-rule="nonzero" stroke="none" stroke-width="1" stroke-linecap="butt" stroke-linejoin="miter" stroke-miterlimit="10" stroke-dasharray="" stroke-dashoffset="0" font-family="Sans Serif" font-weight="normal" text-anchor="start" style="mix-blend-mode: normal"><tspan x="0" dy="0">How do you want to sign up?</tspan></text></g></g></svg>